<svg xmlns="http://www.w3.org/2000/svg" viewBox="0 0 201.34 50"><defs><style>.cls-1{fill:#0d2d55;}.cls-2{fill:#0065ff;}.cls-3{fill:#fff;}.cls-4{fill:#0064fb;}</style></defs><g id="Layer_2" data-name="Layer 2"><g id="Layer_1-2" data-name="Layer 1"><path class="cls-1" d="M15.34,14.65a8.43,8.43,0,0,1,1.49,2.66,10.42,10.42,0,0,1,.53,3.45,9.29,9.29,0,0,1-.63,3.48A8.57,8.57,0,0,1,15,26.92a7.8,7.8,0,0,1-2.43,1.73,6.71,6.71,0,0,1-2.84.61,7.26,7.26,0,0,1-2.38-.33,5.67,5.67,0,0,1-1.52-.77H5.74V33A2,2,0,0,0,6,34a1.33,1.33,0,0,0,.7.57,8,8,0,0,0,1.12.29A8.44,8.44,0,0,0,9,35v1.08H0V35l1-.08a5,5,0,0,0,.85-.16,1.12,1.12,0,0,0,.68-.57,2.27,2.27,0,0,0,.2-1V16.11a1.9,1.9,0,0,0-.25-.95,2,2,0,0,0-.63-.73A2.16,2.16,0,0,0,1,14.12,9.4,9.4,0,0,0,0,14V12.91l5.48-.36.23.19v1.82l.13,0A7,7,0,0,1,8,13a5.3,5.3,0,0,1,2.49-.66,6,6,0,0,1,2.75.64A6.87,6.87,0,0,1,15.34,14.65ZM12.68,26.22a7.53,7.53,0,0,0,1-2.35,13,13,0,0,0,.31-3,12.42,12.42,0,0,0-.26-2.47,7,7,0,0,0-.82-2.18,4.55,4.55,0,0,0-1.45-1.54,3.84,3.84,0,0,0-2.15-.58,3.76,3.76,0,0,0-2.06.53,6.37,6.37,0,0,0-1.47,1.26v9.51a3.7,3.7,0,0,0,.48.92,4.87,4.87,0,0,0,.75.81,4.66,4.66,0,0,0,1.09.66,3.6,3.6,0,0,0,1.44.26,3.53,3.53,0,0,0,1.76-.48A4.22,4.22,0,0,0,12.68,26.22Z"/><path class="cls-1" d="M36.06,20.77a8.62,8.62,0,0,1-2.28,6.09,7.05,7.05,0,0,1-5.31,2.46,8.26,8.26,0,0,1-2.6-.41,10.92,10.92,0,0,1-2.41-1.09l-1.2,1.88-1-.23c.06-.81.1-1.77.12-2.91s0-2.22,0-3.28V7.35a2.63,2.63,0,0,0-.25-1.11,1.75,1.75,0,0,0-.65-.81,2.56,2.56,0,0,0-1-.31C19,5.05,18.59,5,18.29,5V3.93l5.91-.36.23.25V14.43l.11,0a7,7,0,0,1,2.21-1.62,5.73,5.73,0,0,1,2.36-.54,6.26,6.26,0,0,1,5,2.35A9.14,9.14,0,0,1,36.06,20.77Zm-3.41.12a12.42,12.42,0,0,0-.26-2.47,7,7,0,0,0-.82-2.18,4.55,4.55,0,0,0-1.45-1.54A3.84,3.84,0,0,0,28,14.12a4.24,4.24,0,0,0-2,.44,5.42,5.42,0,0,0-1.54,1.22v9.37a3.78,3.78,0,0,0,.38.91,4.26,4.26,0,0,0,1.88,1.74,3.65,3.65,0,0,0,1.52.28,3.69,3.69,0,0,0,3.22-1.92A9.83,9.83,0,0,0,32.65,20.89Z"/><path class="cls-2" d="M53.14,14.65a8.46,8.46,0,0,1,1.5,2.66,10.42,10.42,0,0,1,.53,3.45,9.1,9.1,0,0,1-.64,3.48,8.37,8.37,0,0,1-1.68,2.68,7.92,7.92,0,0,1-2.43,1.73,6.71,6.71,0,0,1-2.84.61,7.22,7.22,0,0,1-2.38-.33,5.52,5.52,0,0,1-1.52-.77h-.13V33a2,2,0,0,0,.23,1,1.3,1.3,0,0,0,.7.57,7.59,7.59,0,0,0,1.12.29,8.11,8.11,0,0,0,1.2.15v1.08h-9V35l1-.08a4.82,4.82,0,0,0,.84-.16,1.11,1.11,0,0,0,.69-.57,2.27,2.27,0,0,0,.2-1V16.11a2,2,0,0,0-.25-.95,2,2,0,0,0-.64-.73,2,2,0,0,0-.81-.31,9.76,9.76,0,0,0-1-.14V12.91l5.48-.36.23.19v1.82l.13,0A7,7,0,0,1,45.75,13a5.34,5.34,0,0,1,2.5-.66,6,6,0,0,1,2.75.64A6.72,6.72,0,0,1,53.14,14.65ZM50.49,26.22a7.53,7.53,0,0,0,1-2.35,13.57,13.57,0,0,0,.31-3,12.42,12.42,0,0,0-.26-2.47,7.22,7.22,0,0,0-.82-2.18,4.55,4.55,0,0,0-1.45-1.54,3.87,3.87,0,0,0-2.16-.58,3.73,3.73,0,0,0-2,.53,6,6,0,0,0-1.47,1.26v9.51a3.7,3.7,0,0,0,.48.92,4.43,4.43,0,0,0,.74.81,4.94,4.94,0,0,0,1.1.66,3.73,3.73,0,0,0,3.2-.22A4.31,4.31,0,0,0,50.49,26.22Z"/><path class="cls-2" d="M72.77,28.54,71.43,29a4.86,4.86,0,0,1-1.32.17,3.2,3.2,0,0,1-2-.6,2.73,2.73,0,0,1-1-1.73H67a7.82,7.82,0,0,1-2.27,1.79,6.43,6.43,0,0,1-2.93.62,4.15,4.15,0,0,1-3-1.11,3.82,3.82,0,0,1-1.17-2.9,4.84,4.84,0,0,1,.27-1.67,3.85,3.85,0,0,1,.78-1.32,3.68,3.68,0,0,1,1.08-.87A8.38,8.38,0,0,1,61,20.76c.49-.19,1.48-.53,3-1a21.43,21.43,0,0,0,3-1.18V16.94a6.84,6.84,0,0,0-.09-.82A3.36,3.36,0,0,0,66.57,15a3.15,3.15,0,0,0-.92-1.05A2.76,2.76,0,0,0,64,13.48a3.73,3.73,0,0,0-1.39.25,2.71,2.71,0,0,0-.91.53,4.08,4.08,0,0,0,.16,1A5.22,5.22,0,0,1,62,16.4a1.39,1.39,0,0,1-.51,1,2,2,0,0,1-1.43.48,1.36,1.36,0,0,1-1.2-.58,2.36,2.36,0,0,1-.38-1.3A2.29,2.29,0,0,1,59,14.6a5.34,5.34,0,0,1,1.38-1.22,7.56,7.56,0,0,1,1.78-.77,6.67,6.67,0,0,1,2-.32,12.93,12.93,0,0,1,2.39.19,4.37,4.37,0,0,1,1.85.8,3.85,3.85,0,0,1,1.26,1.64,7,7,0,0,1,.43,2.67c0,1.56,0,2.94,0,4.14s0,2.51,0,3.94a2,2,0,0,0,.22,1,1.8,1.8,0,0,0,.67.64,1.83,1.83,0,0,0,.78.16l1.08,0Zm-5.69-8.62c-.93.28-1.74.54-2.43.81a9.05,9.05,0,0,0-1.94,1A4.34,4.34,0,0,0,61.42,23a3.33,3.33,0,0,0-.48,1.81,2.55,2.55,0,0,0,.71,2,2.6,2.6,0,0,0,1.81.64,3.76,3.76,0,0,0,2-.56A6.12,6.12,0,0,0,67,25.57Z"/><path class="cls-2" d="M86.69,14.82a2.63,2.63,0,0,1-.41,1.47,1.38,1.38,0,0,1-1.25.65,1.9,1.9,0,0,1-1.4-.48,1.42,1.42,0,0,1-.48-1,3.2,3.2,0,0,1,.06-.65c0-.2.07-.39.11-.59a3.65,3.65,0,0,0-1.8.62,5.26,5.26,0,0,0-1.75,1.76v9.37a1.83,1.83,0,0,0,.22.93,1.34,1.34,0,0,0,.7.54,4.09,4.09,0,0,0,1,.24c.43.06.8.09,1.12.12v1.07H74.37V27.76l.78-.07a2.65,2.65,0,0,0,.69-.13,1.2,1.2,0,0,0,.68-.51,1.82,1.82,0,0,0,.22-1V16.17a2.26,2.26,0,0,0-.24-1,2.09,2.09,0,0,0-.66-.78,2.18,2.18,0,0,0-.73-.28,8.15,8.15,0,0,0-.92-.13V12.91l5.36-.36.22.23v2.27h.09a7.17,7.17,0,0,1,2.25-2,4.71,4.71,0,0,1,2.27-.69,2.24,2.24,0,0,1,1.67.67A2.49,2.49,0,0,1,86.69,14.82Z"/><path class="cls-2" d="M98,28.13c-.71.3-1.38.54-2,.74a7.38,7.38,0,0,1-2.31.31,3.48,3.48,0,0,1-2.85-1A4.47,4.47,0,0,1,90,25.28V14.38H87.1V12.81h3v-5h3v5h4.62v1.57H93.07v9a15.81,15.81,0,0,0,.08,1.69,3.08,3.08,0,0,0,.35,1.18,1.71,1.71,0,0,0,.78.72,3.42,3.42,0,0,0,1.4.24c.28,0,.68,0,1.2-.07A5.09,5.09,0,0,0,98,26.94Z"/><path class="cls-2" d="M117.37,28.83H109.5V27.76l.83-.07a2.82,2.82,0,0,0,.74-.13,1.23,1.23,0,0,0,.68-.51,2,2,0,0,0,.22-1V17.82a3.9,3.9,0,0,0-.81-2.64,2.52,2.52,0,0,0-2-.93,4.73,4.73,0,0,0-1.59.26,5.27,5.27,0,0,0-1.27.67,3.72,3.72,0,0,0-.86.8,6.07,6.07,0,0,0-.47.7v9.25a1.68,1.68,0,0,0,.23.91,1.47,1.47,0,0,0,.68.56,3,3,0,0,0,.75.24,7,7,0,0,0,.82.12v1.07H99.6V27.76l.77-.07a2.73,2.73,0,0,0,.7-.13,1.23,1.23,0,0,0,.68-.51,1.92,1.92,0,0,0,.22-1V16.17a2.19,2.19,0,0,0-.24-1,2.11,2.11,0,0,0-.66-.76,2.24,2.24,0,0,0-.74-.28,7.66,7.66,0,0,0-.91-.13V12.91l5.35-.36.23.23v2.27h.08c.26-.27.59-.58,1-.94a8,8,0,0,1,1.11-.89,5.64,5.64,0,0,1,1.44-.65,6,6,0,0,1,1.87-.27,4.09,4.09,0,0,1,3.44,1.45A6.13,6.13,0,0,1,115,17.59V26a1.88,1.88,0,0,0,.19.92,1.25,1.25,0,0,0,.67.55,3.89,3.89,0,0,0,.68.23,7.21,7.21,0,0,0,.79.1Z"/><path class="cls-2" d="M133.64,25.05a8.41,8.41,0,0,1-2.71,3.07,6.82,6.82,0,0,1-3.9,1.14,7.85,7.85,0,0,1-3.4-.69,6.48,6.48,0,0,1-2.41-1.86A7.83,7.83,0,0,1,119.81,24a11.56,11.56,0,0,1-.47-3.31,9.83,9.83,0,0,1,.5-3.08,8.66,8.66,0,0,1,1.46-2.71A6.93,6.93,0,0,1,123.61,13a6.57,6.57,0,0,1,3.09-.71,7.44,7.44,0,0,1,3,.55,5.36,5.36,0,0,1,2,1.52,6.2,6.2,0,0,1,1.12,2.15,9.68,9.68,0,0,1,.37,2.7v1.07H122.59a12.74,12.74,0,0,0,.3,2.88,6.74,6.74,0,0,0,1,2.27,4.44,4.44,0,0,0,1.66,1.5,5.09,5.09,0,0,0,2.45.55,4.52,4.52,0,0,0,2.5-.68,6.67,6.67,0,0,0,2-2.45ZM130,18.91a13.74,13.74,0,0,0-.15-1.95,6.2,6.2,0,0,0-.5-1.74,3.22,3.22,0,0,0-1-1.22,2.81,2.81,0,0,0-1.68-.47A3.5,3.5,0,0,0,123.82,15a6.71,6.71,0,0,0-1.23,4Z"/><path class="cls-2" d="M147.82,14.82a2.71,2.71,0,0,1-.41,1.47,1.39,1.39,0,0,1-1.26.65,1.88,1.88,0,0,1-1.39-.48,1.42,1.42,0,0,1-.48-1,3.24,3.24,0,0,1,.05-.65c0-.2.08-.39.11-.59a3.68,3.68,0,0,0-1.8.62,5.33,5.33,0,0,0-1.74,1.76v9.37a1.73,1.73,0,0,0,.22.93,1.36,1.36,0,0,0,.69.54,4.09,4.09,0,0,0,1.05.24c.43.06.81.09,1.12.12v1.07H135.5V27.76l.77-.07a2.73,2.73,0,0,0,.7-.13,1.17,1.17,0,0,0,.67-.51,1.82,1.82,0,0,0,.22-1V16.17a2.39,2.39,0,0,0-.23-1,2.09,2.09,0,0,0-.66-.78,2.33,2.33,0,0,0-.74-.28,8,8,0,0,0-.91-.13V12.91l5.35-.36.23.23v2.27H141a7.17,7.17,0,0,1,2.25-2,4.74,4.74,0,0,1,2.27-.69,2.24,2.24,0,0,1,1.67.67A2.5,2.5,0,0,1,147.82,14.82Z"/><path class="cls-2" d="M159.81,21a4.09,4.09,0,0,1,1,1.36,4.36,4.36,0,0,1,.36,1.87,4.58,4.58,0,0,1-1.68,3.66,7.11,7.11,0,0,1-6.91.91,7.16,7.16,0,0,1-1.69-.93l-.33,1.06h-1.22l-.17-5.59h1.13a6.62,6.62,0,0,0,.55,1.49,7.45,7.45,0,0,0,1,1.53,5.92,5.92,0,0,0,1.53,1.22,4.14,4.14,0,0,0,2,.49,3.61,3.61,0,0,0,2.41-.72,2.49,2.49,0,0,0,.85-2,2.42,2.42,0,0,0-.27-1.18,2.62,2.62,0,0,0-.79-.88,6.24,6.24,0,0,0-1.32-.67c-.52-.2-1.11-.4-1.75-.6a14.71,14.71,0,0,1-1.7-.63,6.56,6.56,0,0,1-1.61-.94,4.59,4.59,0,0,1-1.18-1.4,4.05,4.05,0,0,1-.45-2,4.39,4.39,0,0,1,1.47-3.34A5.5,5.5,0,0,1,155,12.29a8.16,8.16,0,0,1,1.93.24,6.85,6.85,0,0,1,1.61.59l.38-.85h1.17l.24,5.17h-1.12a5.17,5.17,0,0,0-1.48-2.82A3.82,3.82,0,0,0,155,13.53a3.07,3.07,0,0,0-2.11.67,2.1,2.1,0,0,0-.77,1.63,2.59,2.59,0,0,0,.26,1.22,2.15,2.15,0,0,0,.76.83,5.85,5.85,0,0,0,1.23.62c.49.19,1.1.4,1.83.64a17,17,0,0,1,2,.8A6.86,6.86,0,0,1,159.81,21Z"/><path class="cls-2" d="M72.51,36.72H70V38.4h2.4v1.18H70V41.5h2.65v1.18H68.53V35.54h4Z"/><path class="cls-2" d="M74.77,38.4h0l1.82-2.86h1.56L76.23,38.6l2.16,4.08H76.77L75.3,39.75l-.53.81v2.12H73.33V35.54h1.44Z"/><path class="cls-2" d="M83.76,35.54a2,2,0,0,1,1.4.45,1.77,1.77,0,0,1,.5,1.39,2.07,2.07,0,0,1-.29,1.17,1.36,1.36,0,0,1-.9.59v0a1.27,1.27,0,0,1,.79.35,1.46,1.46,0,0,1,.31.87,2.81,2.81,0,0,1,0,.43c0,.16,0,.33,0,.53q0,.57.06.87a.54.54,0,0,0,.26.4v.07H84.38a.83.83,0,0,1-.14-.35c0-.13,0-.26,0-.4l0-1.37A1.08,1.08,0,0,0,84,39.9a.76.76,0,0,0-.64-.24h-.77v3H81.1V35.54Zm-.62,3.12a1.18,1.18,0,0,0,.8-.25,1,1,0,0,0,.28-.82.88.88,0,0,0-1-1h-.68v2.06Z"/><path class="cls-2" d="M86.73,35.54h1.44v7.14H86.73Z"/><path class="cls-2" d="M90.4,40.66a3.14,3.14,0,0,0,0,.45.93.93,0,0,0,.15.35.87.87,0,0,0,.3.22,1.22,1.22,0,0,0,.46.08,1,1,0,0,0,.6-.22.81.81,0,0,0,.26-.66,1.33,1.33,0,0,0-.06-.42.84.84,0,0,0-.22-.31,1.47,1.47,0,0,0-.39-.26,5.71,5.71,0,0,0-.61-.23,6.7,6.7,0,0,1-.83-.35,2.24,2.24,0,0,1-.58-.45,1.68,1.68,0,0,1-.35-.59,2.55,2.55,0,0,1-.11-.77,2,2,0,0,1,.59-1.58,2.37,2.37,0,0,1,1.62-.52,3.57,3.57,0,0,1,.89.1,1.83,1.83,0,0,1,.7.34,1.72,1.72,0,0,1,.46.6,2.13,2.13,0,0,1,.16.88v.2H92.1a1.44,1.44,0,0,0-.18-.79.67.67,0,0,0-.6-.27,1,1,0,0,0-.4.07.58.58,0,0,0-.25.18.57.57,0,0,0-.13.27,1.06,1.06,0,0,0,0,.31,1,1,0,0,0,.14.55,1.36,1.36,0,0,0,.6.42l1.11.48a3.14,3.14,0,0,1,.67.37,1.86,1.86,0,0,1,.42.42,1.48,1.48,0,0,1,.21.5,2.77,2.77,0,0,1,.06.6,2,2,0,0,1-.65,1.64,2.93,2.93,0,0,1-1.83.52,2.4,2.4,0,0,1-1.74-.53A2.08,2.08,0,0,1,89,40.74v-.29H90.4Z"/><path class="cls-2" d="M95.87,35.54v2.73h1.68V35.54H99v7.14H97.55V39.51H95.87v3.17H94.43V35.54Z"/><path class="cls-2" d="M104.17,36.72h-1.56v6h-1.44v-6H99.61V35.54h4.56Z"/><path class="cls-2" d="M107.41,35.54l1.89,7.14h-1.5l-.33-1.51h-1.9l-.33,1.51h-1.5l1.89-7.14ZM107.22,40l-.69-3.21h0L105.82,40Z"/><path class="cls-2" d="M114.61,35.54a3.47,3.47,0,0,1,.81.09,1.69,1.69,0,0,1,.65.3,1.34,1.34,0,0,1,.42.56,2.17,2.17,0,0,1,.15.86,1.79,1.79,0,0,1-.27,1,1.35,1.35,0,0,1-.81.57v0a1.38,1.38,0,0,1,1,.51,1.77,1.77,0,0,1,.35,1.15,3,3,0,0,1-.11.8,1.57,1.57,0,0,1-.38.66,1.85,1.85,0,0,1-.69.46,2.88,2.88,0,0,1-1.05.17H112.2V35.54Zm-.56,2.93a1.42,1.42,0,0,0,.87-.22.83.83,0,0,0,.28-.72.89.89,0,0,0-.25-.72,1.22,1.22,0,0,0-.79-.21h-.52v1.87Zm.15,3.15a1.42,1.42,0,0,0,.84-.23,1,1,0,0,0,.32-.85,1.31,1.31,0,0,0-.09-.52.73.73,0,0,0-.23-.33.78.78,0,0,0-.34-.17,1.52,1.52,0,0,0-.44-.05h-.62v2.15Z"/><path class="cls-2" d="M119.2,35.54v2.73h1.68V35.54h1.44v7.14h-1.44V39.51H119.2v3.17h-1.44V35.54Z"/><path class="cls-2" d="M126.49,35.54l1.89,7.14h-1.5l-.33-1.51h-1.9l-.33,1.51h-1.5l1.89-7.14ZM126.3,40l-.69-3.21h0L124.9,40Z"/><path class="cls-2" d="M131.54,35.54a2,2,0,0,1,1.4.45,1.8,1.8,0,0,1,.5,1.39,2.16,2.16,0,0,1-.29,1.17,1.41,1.41,0,0,1-.9.59v0a1.29,1.29,0,0,1,.79.35,1.53,1.53,0,0,1,.31.87c0,.13,0,.27,0,.43s0,.33,0,.53a7.66,7.66,0,0,0,.06.87.52.52,0,0,0,.26.4v.07h-1.56a.72.72,0,0,1-.14-.35,2.58,2.58,0,0,1,0-.4l0-1.37a1.23,1.23,0,0,0-.21-.66.77.77,0,0,0-.64-.24h-.77v3h-1.44V35.54Zm-.62,3.12a1.21,1.21,0,0,0,.8-.25,1.07,1.07,0,0,0,.28-.82.88.88,0,0,0-1-1h-.68v2.06Z"/><path class="cls-2" d="M134.36,37.61a3.23,3.23,0,0,1,.33-1.17,1.83,1.83,0,0,1,.74-.77,3.22,3.22,0,0,1,2.58,0,1.81,1.81,0,0,1,.73.77,3.23,3.23,0,0,1,.33,1.17,14.1,14.1,0,0,1,0,3,3.35,3.35,0,0,1-.33,1.17,1.82,1.82,0,0,1-.73.75,3.33,3.33,0,0,1-2.58,0,1.84,1.84,0,0,1-.74-.75,3.35,3.35,0,0,1-.33-1.17,16.11,16.11,0,0,1,0-3Zm1.4,2.72a3.73,3.73,0,0,0,.14.82.93.93,0,0,0,.3.46.82.82,0,0,0,.52.15.81.81,0,0,0,.51-.15.93.93,0,0,0,.3-.46,3.22,3.22,0,0,0,.14-.82c0-.34,0-.74,0-1.22s0-.89,0-1.22a3.22,3.22,0,0,0-.14-.82.91.91,0,0,0-.3-.47.81.81,0,0,0-.51-.14.82.82,0,0,0-.52.14.91.91,0,0,0-.3.47,3.73,3.73,0,0,0-.14.82c0,.33,0,.74,0,1.22S135.74,40,135.76,40.33Z"/><path class="cls-2" d="M141.16,40.66a2.15,2.15,0,0,0,0,.45.69.69,0,0,0,.15.35.82.82,0,0,0,.29.22,1.28,1.28,0,0,0,.47.08.94.94,0,0,0,.59-.22.78.78,0,0,0,.27-.66,1.09,1.09,0,0,0-.07-.42.72.72,0,0,0-.21-.31,1.38,1.38,0,0,0-.4-.26,4.78,4.78,0,0,0-.6-.23,6.1,6.1,0,0,1-.83-.35,2.3,2.3,0,0,1-.59-.45,1.66,1.66,0,0,1-.34-.59,2.27,2.27,0,0,1-.11-.77,2,2,0,0,1,.59-1.58A2.34,2.34,0,0,1,142,35.4a3.49,3.49,0,0,1,.88.1,1.83,1.83,0,0,1,.7.34,1.61,1.61,0,0,1,.46.6,2.12,2.12,0,0,1,.17.88v.2h-1.38a1.44,1.44,0,0,0-.18-.79.67.67,0,0,0-.6-.27.93.93,0,0,0-.4.07.61.61,0,0,0-.26.18.84.84,0,0,0-.13.27,1.55,1.55,0,0,0,0,.31,1,1,0,0,0,.14.55,1.25,1.25,0,0,0,.6.42l1.11.48a3.73,3.73,0,0,1,.67.37,1.8,1.8,0,0,1,.41.42,1.5,1.5,0,0,1,.22.5,2.77,2.77,0,0,1,.06.6,2,2,0,0,1-.66,1.64,2.9,2.9,0,0,1-1.82.52,2.41,2.41,0,0,1-1.75-.53,2.08,2.08,0,0,1-.52-1.52v-.29h1.44Z"/><path class="cls-2" d="M149.18,36.72h-2.55V38.4H149v1.18h-2.4V41.5h2.65v1.18h-4.09V35.54h4Z"/><path class="cls-2" d="M153.84,38.4h0l1.82-2.86h1.55L155.3,38.6l2.15,4.08h-1.61l-1.47-2.93-.53.81v2.12H152.4V35.54h1.44Z"/><path class="cls-2" d="M160.93,35.54l1.89,7.14h-1.5L161,41.17h-1.9l-.33,1.51h-1.5l1.89-7.14ZM160.74,40l-.69-3.21h0L159.34,40Z"/><path class="cls-2" d="M201.34,18.25A18.25,18.25,0,1,1,183.09,0,18.25,18.25,0,0,1,201.34,18.25Z"/><path class="cls-3" d="M176.53,22.89l1.23-.33a3.28,3.28,0,0,1-.2,2.31,3.07,3.07,0,0,1-1.66,1.48,3.25,3.25,0,0,1-2.71,0,4.08,4.08,0,0,1-2-2.34,5.32,5.32,0,0,1-.45-2.15,2.89,2.89,0,0,1,.62-1.75A3.68,3.68,0,0,1,172.88,19a3.16,3.16,0,0,1,2.11-.2,2.86,2.86,0,0,1,1.61,1.27l-1.08.65a2.06,2.06,0,0,0-1-.82,1.56,1.56,0,0,0-1.16.06,2,2,0,0,0-1.2,1.25,3.26,3.26,0,0,0,.28,2.27,3.42,3.42,0,0,0,1.39,1.84,1.91,1.91,0,0,0,1.68.06,1.85,1.85,0,0,0,1-.92A2.35,2.35,0,0,0,176.53,22.89Z"/><path class="cls-3" d="M177.89,21.23a3.93,3.93,0,0,1-.11-3.34,3.54,3.54,0,0,1,1.89-1.69,3.43,3.43,0,0,1,2.77,0,3.92,3.92,0,0,1,2,2.25,5,5,0,0,1,.47,2.3,3.15,3.15,0,0,1-.69,1.7,3.66,3.66,0,0,1-1.52,1.13,3.41,3.41,0,0,1-2.78,0A4.15,4.15,0,0,1,177.89,21.23Zm1.22-.5a3.29,3.29,0,0,0,1.43,1.78,2.13,2.13,0,0,0,3-1.22,3.38,3.38,0,0,0-.26-2.31,3.16,3.16,0,0,0-1.41-1.73,2,2,0,0,0-1.75-.07,2.07,2.07,0,0,0-1.21,1.28A3.24,3.24,0,0,0,179.11,20.73Z"/><path class="cls-3" d="M187.33,21.46l-2.9-7L185.5,14l.4,1a2.74,2.74,0,0,1,.54-1.19,2.7,2.7,0,0,1,1.12-.83,2.56,2.56,0,0,1,1.42-.21,1.92,1.92,0,0,1,1.08.62,2.74,2.74,0,0,1,1.66-2.13,2.36,2.36,0,0,1,1.85-.08,2.65,2.65,0,0,1,1.3,1.56l2,4.82-1.19.49-1.82-4.43a3.69,3.69,0,0,0-.54-1,1.12,1.12,0,0,0-.63-.34,1.42,1.42,0,0,0-.8.11,1.76,1.76,0,0,0-1,1,2.3,2.3,0,0,0,.16,1.78l1.68,4.09-1.19.49-1.89-4.57a2.11,2.11,0,0,0-.78-1.07,1.19,1.19,0,0,0-1.12,0,1.94,1.94,0,0,0-.82.65,1.65,1.65,0,0,0-.3,1,4.57,4.57,0,0,0,.42,1.55l1.5,3.65Z"/><polygon class="cls-4" points="54.35 35.83 51.3 35.83 50.22 39.56 53.31 39.56 52.63 42.29 49.53 42.29 48.49 45.98 51.5 45.98 50.42 50 54.23 50 55.24 45.98 58.17 45.98 57.08 49.96 60.9 49.96 61.98 46.02 64.47 46.02 65.52 42.25 63.11 42.25 63.87 39.48 66.32 39.48 67.36 35.83 64.91 35.83 66.04 31.93 62.18 31.93 61.06 35.74 58.13 35.74 59.29 31.89 55.44 31.89 54.35 35.83"/><path class="cls-3" d="M54.22,39.49l-.8,2.79.56,0A3.2,3.2,0,0,0,57.19,44s.54-.06-.16-.65c0,0-.09-.44.29-.29l.77.7a.34.34,0,0,0,.53,0c.28-.3.11-.46,0-.63a3.61,3.61,0,0,0-.55-.47s-.18-.44.28-.31l.91.76s.39.34.61,0,0-.42-.09-.55-.64-.6-.64-.6-.08-.38.24-.29l.79.7a.53.53,0,0,0,.53.11c.27-.14.33-.43,0-.71l-1.84-1.63a.76.76,0,0,0-.93-.06,7.78,7.78,0,0,1-1.09.67,1.33,1.33,0,0,1-1.17-.24c-.48-.44.72-1,.72-1l1-.58s.09-.33-.26-.19S54.65,39.73,54.22,39.49Z"/><path class="cls-3" d="M58.38,38.68l-1.71,1-.74.48s.14.55.93.21a5,5,0,0,0,1.25-.73,1.1,1.1,0,0,1,.81.08c.35.21,2.27,2,2.27,2l0,.48h1L63,39.51H60.79l-1.48-.69A1.34,1.34,0,0,0,58.38,38.68Z"/></g></g></svg>